<?xml version="1.0" encoding="UTF-8"?>
<svg id="symbols" xmlns="http://www.w3.org/2000/svg" viewBox="0 0 250 250">
  <defs>
    <style>
      .cls-1 {
        fill: #6c4604;
      }

      .cls-2 {
        fill: #a46e07;
      }

      .cls-3 {
        fill: none;
        stroke: #6c4604;
        stroke-miterlimit: 10;
        stroke-width: 1.25px;
      }
    </style>
  </defs>
  <g>
    <polygon class="cls-1" points="23.83 148.37 25.27 152.82 29.95 152.82 26.17 155.57 27.61 160.02 23.83 157.27 20.04 160.02 21.49 155.57 17.71 152.82 22.38 152.82 23.83 148.37"/>
    <polygon class="cls-1" points="54.96 129.69 56.41 134.14 61.08 134.14 57.3 136.89 58.74 141.34 54.96 138.59 51.18 141.34 52.62 136.89 48.84 134.14 53.51 134.14 54.96 129.69"/>
    <polygon class="cls-1" points="72.39 119.73 73.84 124.18 78.52 124.18 74.73 126.93 76.18 131.38 72.39 128.63 68.61 131.38 70.05 126.93 66.27 124.18 70.95 124.18 72.39 119.73"/>
    <polygon class="cls-1" points="84.85 86.11 86.29 90.56 90.97 90.56 87.18 93.31 88.63 97.76 84.85 95.01 81.06 97.76 82.51 93.31 78.72 90.56 83.4 90.56 84.85 86.11"/>
    <polygon class="cls-1" points="61.19 62.45 62.63 66.9 67.31 66.9 63.53 69.65 64.97 74.1 61.19 71.35 57.4 74.1 58.85 69.65 55.06 66.9 59.74 66.9 61.19 62.45"/>
    <polygon class="cls-1" points="128.43 59.96 129.87 64.41 134.55 64.41 130.77 67.16 132.21 71.61 128.43 68.86 124.64 71.61 126.09 67.16 122.3 64.41 126.98 64.41 128.43 59.96"/>
    <polygon class="cls-1" points="137.15 64.94 138.59 69.39 143.27 69.39 139.48 72.14 140.93 76.59 137.15 73.84 133.36 76.59 134.81 72.14 131.02 69.39 135.7 69.39 137.15 64.94"/>
    <polygon class="cls-1" points="144.62 77.39 146.06 81.84 150.74 81.84 146.96 84.59 148.4 89.04 144.62 86.29 140.83 89.04 142.28 84.59 138.49 81.84 143.17 81.84 144.62 77.39"/>
    <polygon class="cls-1" points="165.79 84.86 167.23 89.31 171.91 89.31 168.12 92.06 169.57 96.51 165.79 93.76 162 96.51 163.45 92.06 159.66 89.31 164.34 89.31 165.79 84.86"/>
    <polygon class="cls-1" points="130.92 114.75 132.36 119.2 137.04 119.2 133.26 121.95 134.7 126.4 130.92 123.65 127.13 126.4 128.58 121.95 124.8 119.2 129.47 119.2 130.92 114.75"/>
    <polygon class="cls-1" points="125.94 152.11 127.38 156.56 132.06 156.56 128.28 159.3 129.72 163.75 125.94 161 122.15 163.75 123.6 159.3 119.81 156.56 124.49 156.56 125.94 152.11"/>
    <polygon class="cls-1" points="194.43 135.92 195.87 140.37 200.55 140.37 196.77 143.12 198.21 147.57 194.43 144.82 190.64 147.57 192.09 143.12 188.3 140.37 192.98 140.37 194.43 135.92"/>
    <polygon class="cls-1" points="239.25 191.95 240.7 196.4 245.38 196.4 241.59 199.15 243.04 203.6 239.25 200.85 235.47 203.6 236.92 199.15 233.13 196.4 237.81 196.4 239.25 191.95"/>
    <polyline class="cls-3" points="23.83 154.19 54.96 135.52 72.39 126.01 84.85 91.93 61.08 68.83 128.43 67.15 137.15 70.76 144.62 83.22 165.79 90.69 194.43 141.74 239.25 197.78"/>
    <polyline class="cls-3" points="125.94 157.93 130.92 120.57 165.41 91.18"/>
  </g>
  <g>
    <path class="cls-2" d="m133.77,122.22c6.52,5.91,13.38,11.73,19.74,18.06,3.86,3.84,6.79,4.01,11.09.59,8.76-6.98,17.94-13.42,27.79-20.7,9.62,8.41,19.15,16.75,29.22,25.56,8.65-7.77,16.92-15.2,25.18-22.62.97.35,1.94.71,2.91,1.06-1.56,4.55-1.98,10.09-4.91,13.46-6.5,7.5-14.34,13.81-21.44,20.81-4.6,4.54-9.06,4.99-13.89.61-.46-.42-.95-.81-1.45-1.18-6.92-5.12-13.61-13.82-20.84-14.3-6.83-.46-14.3,7.64-21.38,12.14q-15.63,9.94-29.86-2.42c-1.65-1.43-3.44-2.73-4.92-4.31-4.15-4.46-7.62-4.86-12.33-.05-14.26,14.53-30.44,18.67-48.93,7.56-3.44-2.07-7.52-3.05-11.09-4.94-17.69-9.38-34.27-6.42-50.25,4.18-2.57,1.71-5.16,3.4-7.93,5.23.81-23.17,31.02-40.22,50.98-29.05,7.33,4.1,14.33,8.82,21.58,13.08,10.04,5.89,20.26,6.13,29.97-.48,10.01-6.82,19.64-14.19,30.74-22.27Z"/>
    <path class="cls-2" d="m7.24,120.08c7.31-30.3,33.86-41.7,58.19-26.35,30.23,19.06,36.45,18.65,64.31-4.24,2.87-2.35,5.71-4.74,10.98-9.13,6.34,8.53,12.61,16.96,19.1,25.69,11.06-8.55,19.51-14.41,27.13-21.2,5.5-4.9,9.19-4.12,14.02.71,6.36,6.36,13.4,12.04,20.56,18.38,8.91-7.97,17.37-15.54,25.84-23.11,1.04.63,2.09,1.26,3.13,1.9-2.25,4.81-3.6,10.4-6.94,14.26-6.09,7.04-13.46,12.96-20.1,19.54-4.52,4.49-8.7,5.02-13.91.87-6.69-5.34-13.75-13.91-20.81-14.06-7.33-.16-14.82,8.11-22.28,12.62-15.31,9.26-10.33,9.67-23.81-2.1-3.73-3.25-7.37-6.6-11.18-10.01-5.69,4.24-10.72,8.35-16.1,11.94-9.59,6.4-19.78,6.86-30.26,2.18-6.26-2.8-12.7-5.25-18.75-8.44-17.42-9.18-33.7-6.22-49.45,4.04-2.85,1.86-5.65,3.81-9.68,6.53Z"/>
  </g>
</svg>