<?xml version="1.0" encoding="UTF-8"?>
<svg id="symbols" xmlns="http://www.w3.org/2000/svg" viewBox="0 0 250 250">
  <defs>
    <style>
      .cls-1 {
        fill: #6c4604;
      }

      .cls-2 {
        fill: #a46e07;
      }

      .cls-3 {
        fill: none;
        stroke: #6c4604;
        stroke-miterlimit: 10;
        stroke-width: 1.35px;
      }
    </style>
  </defs>
  <g>
    <polygon class="cls-1" points="6.12 115.88 7.68 120.69 12.73 120.69 8.64 123.66 10.2 128.46 6.12 125.49 2.03 128.46 3.59 123.66 -.5 120.69 4.55 120.69 6.12 115.88"/>
    <polygon class="cls-1" points="30.33 115.88 31.89 120.69 36.95 120.69 32.86 123.66 34.42 128.46 30.33 125.49 26.24 128.46 27.8 123.66 23.71 120.69 28.77 120.69 30.33 115.88"/>
    <polygon class="cls-1" points="47.82 144.13 49.38 148.94 54.43 148.94 50.35 151.91 51.91 156.72 47.82 153.74 43.73 156.72 45.29 151.91 41.2 148.94 46.26 148.94 47.82 144.13"/>
    <polygon class="cls-1" points="76.07 158.93 77.63 163.74 82.69 163.74 78.6 166.71 80.16 171.51 76.07 168.54 71.98 171.51 73.54 166.71 69.45 163.74 74.51 163.74 76.07 158.93"/>
    <polygon class="cls-1" points="76.07 103.77 77.63 108.58 82.69 108.58 78.6 111.55 80.16 116.36 76.07 113.39 71.98 116.36 73.54 111.55 69.45 108.58 74.51 108.58 76.07 103.77"/>
    <polygon class="cls-1" points="124.5 95.7 126.06 100.51 131.12 100.51 127.03 103.48 128.59 108.29 124.5 105.31 120.41 108.29 121.97 103.48 117.88 100.51 122.94 100.51 124.5 95.7"/>
    <polygon class="cls-1" points="147.37 180.45 148.93 185.26 153.99 185.26 149.9 188.23 151.46 193.04 147.37 190.07 143.28 193.04 144.84 188.23 140.75 185.26 145.81 185.26 147.37 180.45"/>
    <polygon class="cls-1" points="194.45 191.22 196.02 196.02 201.07 196.02 196.98 198.99 198.54 203.8 194.45 200.83 190.37 203.8 191.93 198.99 187.84 196.02 192.89 196.02 194.45 191.22"/>
    <polygon class="cls-1" points="201.18 171.04 202.74 175.84 207.8 175.84 203.71 178.81 205.27 183.62 201.18 180.65 197.09 183.62 198.65 178.81 194.57 175.84 199.62 175.84 201.18 171.04"/>
    <polygon class="cls-1" points="240.19 41.89 241.76 46.7 246.81 46.7 242.72 49.67 244.28 54.47 240.19 51.5 236.1 54.47 237.67 49.67 233.58 46.7 238.63 46.7 240.19 41.89"/>
    <polygon class="cls-1" points="242.88 14.98 244.45 19.79 249.5 19.79 245.41 22.76 246.97 27.57 242.88 24.6 238.8 27.57 240.36 22.76 236.27 19.79 241.32 19.79 242.88 14.98"/>
    <polygon class="cls-1" points="90.87 165.66 92.43 170.46 97.48 170.46 93.4 173.43 94.96 178.24 90.87 175.27 86.78 178.24 88.34 173.43 84.25 170.46 89.31 170.46 90.87 165.66"/>
    <polyline class="cls-3" points="242.88 21.28 240.19 48.85 201.18 177.33 194.45 197.51 147.37 186.75 90.87 171.95 76.07 165.22 47.82 150.96 5.59 122.17 30.33 122.17 76.07 110.06 124.5 101.99 239.79 48.71"/>
  </g>
  <path class="cls-2" d="m83.02,167.2c-16.24,11-31.16,21.1-46.07,31.2-.54-.32-1.07-.65-1.61-.97,8.28-9.2,15.05-20.9,25.19-27.03,17.81-10.77,23.81-26.42,30.74-44.75,8.86-23.46,24.31-44.43,37.03-66.41,1.73-2.99,4.08-5.63,7.64-10.47-16.54,0-30.65.58-44.7-.14-19.88-1.01-38.98.33-56.06,15.03,2.38-12.15,4.28-21.89,6.52-33.32h155.74c-40.16,31.38-82.27,61.41-94.25,117.58,18.34-8.58,35.97-12,54.2-6.83,16.83,4.77,31.58,12.29,35.96,31.58,4.17,18.39-5.82,37.44-23.41,44.11-32.7,12.4-67.54-3.08-81.86-36.39-1.42-3.3-2.58-6.71-5.05-13.18Zm20.6-6.02c5.97,29.44,29.36,47.74,55.69,45.13,11.07-1.1,18.39-7.16,19.65-16.3,1.45-10.46-2.88-18.6-13.9-22.29-19.63-6.57-40.06-6.76-61.44-6.55Z"/>
</svg>