<?xml version="1.0" encoding="UTF-8"?>
<svg xmlns="http://www.w3.org/2000/svg" viewBox="0 0 2072.82 1117.09">
  <defs>
    <style>
      .cls-1 {
        fill: #6b481c;
      }

      .cls-2 {
        fill: #a37029;
      }

      .cls-3 {
        stroke-width: 17.24px;
      }

      .cls-3, .cls-4 {
        fill: none;
        stroke: #6b481c;
        stroke-miterlimit: 10;
      }

      .cls-4 {
        stroke-width: 27.58px;
      }
    </style>
  </defs>
  <g id="sun_moon" data-name="sun / moon">
    <circle class="cls-2" cx="697.16" cy="438.41" r="192.5"/>
    <path class="cls-1" d="m618.18,208.76c-148.45-.31-385.59,199.18-208.12,464.06,192.66,234.49,421.01,63.85,488.51-41.92,1.6,76.9-78.28,258.32-313.63,258.32-224.38,0-366.07-142.58-365.9-367.44-.16-240.89,251.48-360.18,399.14-313.02Z"/>
    <rect class="cls-2" x="691.98" y="165.1" width="10.37" height="66.21"/>
    <rect class="cls-2" x="686.8" y="645.51" width="10.37" height="66.21"/>
    <rect class="cls-2" x="932.18" y="407.9" width="10.37" height="66.21" transform="translate(1378.37 -496.37) rotate(90)"/>
    <rect class="cls-2" x="451.78" y="402.71" width="10.37" height="66.21" transform="translate(892.78 -21.14) rotate(90)"/>
    <rect class="cls-2" x="871.46" y="564.96" width="10.37" height="66.21" transform="translate(1903.32 329.48) rotate(131.04)"/>
    <rect class="cls-2" x="512.5" y="245.65" width="10.37" height="66.21" transform="translate(1067.82 71.28) rotate(131.04)"/>
    <rect class="cls-2" x="510.98" y="563.24" width="10.37" height="66.21" transform="translate(414.6 1378.47) rotate(-131.72)"/>
    <rect class="cls-2" x="872.99" y="247.37" width="10.37" height="66.21" transform="translate(1253.28 1122.59) rotate(-131.72)"/>
  </g>
  <g id="stairs">
    <polygon class="cls-1" points="766.33 906.25 355.44 906.79 301.93 928.55 830.93 928.55 766.33 906.25"/>
    <polygon class="cls-1" points="747.41 976.22 365.75 976.22 432.86 1019.97 649.72 1019.97 747.41 976.22"/>
    <polygon class="cls-1" points="707.64 858.13 411.24 858.07 355.38 878.27 766.31 878.27 707.64 858.13"/>
    <polygon class="cls-1" points="666.03 822.36 449.55 822.3 411.24 836.76 705.85 836.76 666.03 822.36"/>
    <polygon class="cls-2" points="796.11 976.22 317.57 976.22 301.93 928.55 830.93 928.55 796.11 976.22"/>
    <rect class="cls-2" x="355.38" y="878.27" width="410.94" height="28.25"/>
    <rect class="cls-2" x="411.24" y="836.76" width="294.62" height="21.31"/>
  </g>
  <g id="Layer_4" data-name="Layer 4">
    <circle class="cls-4" cx="557.4" cy="559.57" r="469.03"/>
    <circle class="cls-3" cx="558.55" cy="558.55" r="549.93"/>
    <path class="cls-2" d="m1681.81,622.65l3.45-12.9c6.75,10.65,21.9,18,34.95,18,14.1,0,21.9-8.7,21.9-19.2,0-13.5-13.5-19.2-24-23.85l-7.5-3.15c-10.5-4.65-27.6-12.75-27.6-32.55,0-18.15,14.7-31.65,37.5-31.65,13.8,0,26.85,4.95,31.5,7.5l-3,11.55c-6.6-7.65-17.1-16.65-30.45-16.65s-20.25,8.4-20.25,18c0,12.3,11.85,17.85,22.8,22.65l7.5,3.15c12.15,5.25,28.65,13.2,28.65,33.3,0,17.7-13.65,33.3-39,33.3-14.55,0-31.95-5.1-36.45-7.5Z"/>
    <path class="cls-2" d="m1770.15,588.6v-69.45h23.85v69.75c0,24.45,10.35,36,27.9,36s28.5-11.1,28.5-35.25v-22.8c0-21-1.8-35.7-4.65-47.7h12.3c-2.85,12-4.65,26.7-4.65,47.7v22.05c0,26.55-12.15,41.25-40.65,41.25s-42.6-15.3-42.6-41.55Z"/>
    <path class="cls-2" d="m1959.45,519.15c-2.85,12-4.65,26.7-4.65,47.7v63.3h-1.95l-72.15-93.45v43.95c0,21,1.8,35.7,4.65,47.7h-12.3c2.85-12,4.65-26.7,4.65-47.7v-47.85l-10.2-13.2v-.45h28.35l55.95,73.95v-26.25c0-21-1.8-35.7-4.65-47.7h12.3Z"/>
    <path class="cls-2" d="m1971.45,649.05c6.3-3.6,9.9-9.15,9.9-15.15,0-6.45-5.4-12.9-12.45-16.8l9.45-13.35c9.9,2.7,17.25,10.35,17.25,20.4,0,12.3-12.75,21.3-23.4,25.95l-.75-1.05Z"/>
    <path class="cls-2" d="m1492.92,845.64l-9.3-98.1-34.95,91.2h-.6l-40.35-86.1-3.9,45.15c-1.8,21-.45,35.85,2.1,47.85h-12.45c3.15-12,5.55-27,7.35-47.85l4.35-50.7-4.8-10.2v-.45h25.5l32.25,69.6,26.7-69.6h21.3l10.2,109.2h-23.4Z"/>
    <path class="cls-2" d="m1556.82,792.09c0-35.4,25.05-57.45,59.25-57.45,32.4,0,57.15,20.1,57.15,55.35s-25.05,57.45-59.25,57.45c-32.4,0-57.15-20.1-57.15-55.35Zm90.45-.45c0-32.7-11.7-54.6-32.55-54.6s-31.8,21.3-31.8,53.4,11.7,54.6,32.7,54.6,31.65-21.15,31.65-53.4Z"/>
    <path class="cls-2" d="m1713.42,792.09c0-35.4,25.05-57.45,59.25-57.45,32.4,0,57.15,20.1,57.15,55.35s-25.05,57.45-59.25,57.45c-32.4,0-57.15-20.1-57.15-55.35Zm90.45-.45c0-32.7-11.7-54.6-32.55-54.6s-31.8,21.3-31.8,53.4,11.7,54.6,32.7,54.6,31.65-21.15,31.65-53.4Z"/>
    <path class="cls-2" d="m1958.22,736.44c-2.85,12-4.65,26.7-4.65,47.7v63.3h-1.95l-72.15-93.45v43.95c0,21,1.8,35.7,4.65,47.7h-12.3c2.85-12,4.65-26.7,4.65-47.7v-47.85l-10.2-13.2v-.45h28.35l55.95,73.95v-26.25c0-21-1.8-35.7-4.65-47.7h12.3Z"/>
    <path class="cls-2" d="m1971.5,867.76c6.3-3.6,9.9-9.15,9.9-15.15,0-6.45-5.4-12.9-12.45-16.8l9.45-13.35c9.9,2.7,17.25,10.35,17.25,20.4,0,12.3-12.75,21.3-23.4,25.95l-.75-1.05Z"/>
    <path class="cls-2" d="m1154.71,1041.7v27.6h-1.2l-48.45-51.9c-2.25-2.25-3.9-2.85-6.9-2.85h-4.8v49.8h-23.85v-109.2h34.35c31.05,0,46.65,8.85,46.65,27.15,0,14.4-11.7,22.65-26.4,27.3l30.6,32.1Zm-27.15-58.2c0-15.75-7.95-25.95-24.9-25.95h-9.3v53.7c3,.6,8.7.9,11.4.9,14.1,0,22.8-13.05,22.8-28.65Z"/>
    <path class="cls-2" d="m1259.11,955.15h23.85v109.2h-23.85v-109.2Z"/>
    <path class="cls-2" d="m1387.81,1058.65l3.45-12.9c6.75,10.65,21.9,18,34.95,18,14.1,0,21.9-8.7,21.9-19.2,0-13.5-13.5-19.2-24-23.85l-7.5-3.15c-10.5-4.65-27.6-12.75-27.6-32.55,0-18.15,14.7-31.65,37.5-31.65,13.8,0,26.85,4.95,31.5,7.5l-3,11.55c-6.6-7.65-17.1-16.65-30.45-16.65s-20.25,8.4-20.25,18c0,12.3,11.85,17.85,22.8,22.65l7.5,3.15c12.15,5.25,28.65,13.2,28.65,33.3,0,17.7-13.65,33.3-39,33.3-14.55,0-31.95-5.1-36.45-7.5Z"/>
    <path class="cls-2" d="m1567.06,955.15h23.85v109.2h-23.85v-109.2Z"/>
    <path class="cls-2" d="m1786.51,955.15c-2.85,12-4.65,26.7-4.65,47.7v63.3h-1.95l-72.15-93.45v43.95c0,21,1.8,35.7,4.65,47.7h-12.3c2.85-12,4.65-26.7,4.65-47.7v-47.85l-10.2-13.2v-.45h28.35l55.95,73.95v-26.25c0-21-1.8-35.7-4.65-47.7h12.3Z"/>
    <path class="cls-2" d="m1992.15,1014.85v38.7c-11.4,7.65-24.75,12.6-42.6,12.6-37.5,0-61.35-19.95-61.35-55.65s25.2-57.15,59.25-57.15c18.3,0,33.3,8.4,42.3,17.55l-10.35,9.3c-5.55-12.3-16.2-24.45-32.85-24.45-22.05,0-32.4,21.15-32.4,53.7s13.65,54,36,54c7.05,0,15.6-1.95,20.55-5.1v-40.8h-21.45l-1.65-2.7h44.55Z"/>
  </g>
</svg>