<?xml version="1.0" encoding="UTF-8"?>
<svg id="Layer_2" data-name="Layer 2" xmlns="http://www.w3.org/2000/svg" viewBox="0 0 1920 1080">
  <defs>
    <style>
      .cls-1 {
        fill: #f9f3df;
      }

      .cls-2 {
        fill: #815615;
      }

      .cls-3 {
        fill: #6c4604;
      }

      .cls-4 {
        fill: #bb8b64;
      }

      .cls-5 {
        fill: #a46e07;
      }
    </style>
  </defs>
  <rect class="cls-1" width="1920" height="1080"/>
  <path class="cls-4" d="m1920,650.32s-34-31.32-88-33.32-73,29-105,33-92.04-19.77-124.52-16.39c-32.48,3.39-52.48,40.39-88.48,36.39s-136-95-215-94-137.5,95.5-185.5,101.5-84-48-136-33-133,76-173,73-84-91-130-123-96-48-165-33-136,186-218,211-137-30-185-32S0,772.95,0,772.95v307.05h1920v-429.68Z"/>
  <path class="cls-5" d="m580.08,1080l66.92-387s19-55,71-46,93,65,93,65l328,37,85-53s16-62,94-66,50-35,97-78,72-54,94-44,60,72,100,84,75-10,104,17,47,78,86,71,78-30,98-32,23,14.55,23,14.55v417.45H580.08Z"/>
  <path class="cls-2" d="m1409.01,1080s14.99-324-165.01-383c0,0-50-14-86-48s-53-44-125-29c0,0-24,8-56,53s-58,45-58,45c0,0-167,27-189,16,0,0-20-35-67-43s-51-19-64-21-59-10-107,1-100-28-135-34-92,7-138,38-131,46-149,44-55-22.45-70-21.73v382.73h1409.01Z"/>
  <path class="cls-4" d="m0,756s50-10,96,22,103-46,131-67,69-25,88-9,39,36,64,46,61,5,86,24,171,19,201,0,53-41,70-46,51.39-25.6,59.2-33.8c7.8-8.2,40.8-40.2,72.8-23.2s47,43,68,45,34,7,47,26,43,89,43,89l163,13s15-20,64-27,80-22,96-45,46-43,67-38,77,31,100,37,70,0,99,3,60,49,90,52,73-12,97-16,74,28,86,40,32,12.22,32,12.22v219.8l-1920-.02v-324Z"/>
  <path class="cls-5" d="m647.01,1080l70.99-231s30-31,74-28,109,10,139-9,89-84,152-45,28,43,95,64,81,54,81,54l66.52,195h-678.51Z"/>
  <path class="cls-2" d="m806,1080s127-100,174-116,102-47.3,134-65.65,81-25.35,142-21.35,100-7,150-43,155-76,233-71,62,9,110,17,141,11,156,13l15,2v285H806Z"/>
  <path class="cls-3" d="m1158.34,1080s-40.34-61-123.34-69c0,0-13.99-1-26.49,0s-30.51-14-38.51-27-71-31-117-40-52-27-57-44-18-44-49-56-29-28-34-40-33-61-133-62-103-36-112-47-47-56-98-37-61,68-137,95-94,21-114,16-94,9.76-119,36.88v274.12h1158.34Z"/>
  <path class="cls-5" d="m1194,158s58,56,21,110-101,42-101,42c0,0,40,36,86,20s58-55,58-55c0,0,13-37-7-77s-57-40-57-40Z"/>
</svg>