<?xml version="1.0" encoding="UTF-8"?>
<svg id="symbols" xmlns="http://www.w3.org/2000/svg" viewBox="0 0 250 250">
  <defs>
    <style>
      .cls-1 {
        fill: #6c4604;
      }

      .cls-2 {
        fill: #a46e07;
      }

      .cls-3 {
        fill: none;
        stroke: #6c4604;
        stroke-miterlimit: 10;
        stroke-width: 1.35px;
      }
    </style>
  </defs>
  <g>
    <polygon class="cls-1" points="12.5 24.88 14.06 29.68 19.11 29.68 15.02 32.65 16.59 37.46 12.5 34.49 8.41 37.46 9.97 32.65 5.88 29.68 10.94 29.68 12.5 24.88"/>
    <polygon class="cls-1" points="7.12 38.33 8.68 43.13 13.73 43.13 9.64 46.11 11.2 50.91 7.12 47.94 3.03 50.91 4.59 46.11 .5 43.13 5.55 43.13 7.12 38.33"/>
    <polygon class="cls-1" points="15.19 47.75 16.75 52.55 21.8 52.55 17.71 55.52 19.28 60.33 15.19 57.36 11.1 60.33 12.66 55.52 8.57 52.55 13.63 52.55 15.19 47.75"/>
    <polygon class="cls-1" points="29.99 58.51 31.55 63.31 36.6 63.31 32.51 66.28 34.07 71.09 29.99 68.12 25.9 71.09 27.46 66.28 23.37 63.31 28.42 63.31 29.99 58.51"/>
    <polygon class="cls-1" points="46.13 74.65 47.69 79.46 52.74 79.46 48.66 82.43 50.22 87.23 46.13 84.26 42.04 87.23 43.6 82.43 39.51 79.46 44.57 79.46 46.13 74.65"/>
    <polygon class="cls-1" points="40.75 117.7 42.31 122.51 47.36 122.51 43.27 125.48 44.84 130.28 40.75 127.31 36.66 130.28 38.22 125.48 34.13 122.51 39.19 122.51 40.75 117.7"/>
    <polygon class="cls-1" points="43.44 159.4 45 164.21 50.05 164.21 45.97 167.18 47.53 171.99 43.44 169.02 39.35 171.99 40.91 167.18 36.82 164.21 41.88 164.21 43.44 159.4"/>
    <polygon class="cls-1" points="43.44 202.45 45 207.26 50.05 207.26 45.97 210.23 47.53 215.04 43.44 212.07 39.35 215.04 40.91 210.23 36.82 207.26 41.88 207.26 43.44 202.45"/>
    <polygon class="cls-1" points="52.86 193.03 54.42 197.84 59.47 197.84 55.38 200.81 56.94 205.62 52.86 202.65 48.77 205.62 50.33 200.81 46.24 197.84 51.29 197.84 52.86 193.03"/>
    <polygon class="cls-1" points="59.58 174.2 61.14 179.01 66.2 179.01 62.11 181.98 63.67 186.78 59.58 183.81 55.49 186.78 57.05 181.98 52.97 179.01 58.02 179.01 59.58 174.2"/>
    <polygon class="cls-1" points="71.69 162.09 73.25 166.9 78.3 166.9 74.22 169.87 75.78 174.68 71.69 171.71 67.6 174.68 69.16 169.87 65.07 166.9 70.13 166.9 71.69 162.09"/>
    <polygon class="cls-1" points="97.25 132.5 98.81 137.3 103.86 137.3 99.78 140.27 101.34 145.08 97.25 142.11 93.16 145.08 94.72 140.27 90.63 137.3 95.69 137.3 97.25 132.5"/>
    <polygon class="cls-1" points="116.08 123.08 117.64 127.89 122.7 127.89 118.61 130.86 120.17 135.66 116.08 132.69 111.99 135.66 113.56 130.86 109.47 127.89 114.52 127.89 116.08 123.08"/>
    <polygon class="cls-1" points="177.97 86.76 179.53 91.56 184.58 91.56 180.49 94.54 182.05 99.34 177.97 96.37 173.88 99.34 175.44 94.54 171.35 91.56 176.4 91.56 177.97 86.76"/>
    <polygon class="cls-1" points="206.22 76 207.78 80.8 212.83 80.8 208.74 83.77 210.31 88.58 206.22 85.61 202.13 88.58 203.69 83.77 199.6 80.8 204.65 80.8 206.22 76"/>
    <polygon class="cls-1" points="215.63 96.18 217.2 100.98 222.25 100.98 218.16 103.95 219.72 108.76 215.63 105.79 211.54 108.76 213.11 103.95 209.02 100.98 214.07 100.98 215.63 96.18"/>
    <polygon class="cls-1" points="237.16 86.76 238.72 91.56 243.77 91.56 239.68 94.54 241.25 99.34 237.16 96.37 233.07 99.34 234.63 94.54 230.54 91.56 235.6 91.56 237.16 86.76"/>
    <polygon class="cls-1" points="218.32 61.2 219.89 66 224.94 66 220.85 68.98 222.41 73.78 218.32 70.81 214.24 73.78 215.8 68.98 211.71 66 216.76 66 218.32 61.2"/>
    <polygon class="cls-1" points="231.78 58.51 233.34 63.31 238.39 63.31 234.3 66.28 235.87 71.09 231.78 68.12 227.69 71.09 229.25 66.28 225.16 63.31 230.22 63.31 231.78 58.51"/>
    <polygon class="cls-1" points="243.88 65.23 245.45 70.04 250.5 70.04 246.41 73.01 247.97 77.82 243.88 74.85 239.8 77.82 241.36 73.01 237.27 70.04 242.32 70.04 243.88 65.23"/>
    <polyline class="cls-3" points="12.5 31.17 7.12 44.62 15.19 54.04 29.99 64.8 46.13 80.94 40.75 123.99 43.44 165.7 43.44 208.74 52.86 199.33 59.47 180.49 71.69 168.39 97.25 138.79 116.08 129.37 177.97 93.05 206.22 82.29 218.32 67.49 231.78 64.8 243.88 71.53 237.16 93.05 215.63 102.47 207.16 84.17"/>
  </g>
  <path class="cls-2" d="m159.14,123.53q18.85,2.94,23.65,16.51c-7.52.35-14.73.69-24.03,1.12,5.78,43.72,34.98,67.86,68.42,88.76-13.1,5.49-31.53,2.57-41.13-7.1-18.95-19.08-34.63-40.25-40.8-67.1-1.01-4.37-1.28-8.91-2.12-14.98-9.99,0-20.22-.28-30.41.27-1.7.09-4.39,3.66-4.64,5.85-3.44,30.79-21.3,53.48-41.31,75.15-6.83,7.39-14.32,11.49-24.71,10.1-5.68-.76-11.54-.14-20.33-.14,35.49-22.74,65.49-46.45,71.25-90.64-9.19-.44-17.07-.82-25.39-1.22,2.18-12.87,9.84-17.42,23.61-15.03-7.96-45.78-37.11-73.93-71.15-98.61,13.58-11.19,19.72-11.44,32.27-.82,28.47,24.1,46.56,54.33,53.01,91.19,1.03,5.89,3.4,8.39,9.54,8.04,8.72-.5,19.61,2.77,25.58-1.35,5.51-3.81,5.84-15.21,8.31-23.31,8.61-28.26,23.81-52.3,46-71.85,15.5-13.65,16.54-13.7,36.08-2.42-34.4,24.74-63.27,53.29-71.69,97.58Z"/>
</svg>