<?xml version="1.0" encoding="UTF-8"?>
<svg id="Layer_2" data-name="Layer 2" xmlns="http://www.w3.org/2000/svg" xmlns:xlink="http://www.w3.org/1999/xlink" viewBox="0 0 1920 1080">
  <defs>
    <style>
      .cls-1 {
        fill: none;
      }

      .cls-2 {
        clip-path: url(#clippath);
      }

      .cls-3 {
        fill: #f9f3df;
      }

      .cls-4 {
        fill: #815615;
      }

      .cls-5 {
        fill: #6c4604;
      }

      .cls-6 {
        fill: #bb8b64;
      }

      .cls-7 {
        fill: #a46e07;
      }
    </style>
    <clipPath id="clippath">
      <rect class="cls-1" width="1920" height="1080"/>
    </clipPath>
  </defs>
  <g class="cls-2">
    <rect class="cls-3" width="1920" height="1080"/>
    <path class="cls-7" d="m1920,511.58s-240,41.42-461,34.42-325-102-331-121-3-68-81-107-100-108-114-129-22-53-122-65c0,0-25-6-56-24s-100-31-181-24-146,62-229,101-141,24-205,44S17,310.87,0,310.43v769.57h1920V511.58Z"/>
    <path class="cls-4" d="m1180.73,1080l-35.73-359s-289-303-471-139-410,226-492,239S0,783.75,0,783.75v296.25h1180.73Z"/>
    <polygon class="cls-4" points="1244 897 1293.46 897 1293 944 1338.75 944 1338.75 990.04 1383.63 990.04 1384 1054 1244 1054 1244 897"/>
    <path class="cls-4" d="m1327,820s50,7,51,54v150.84l15,1.16v-152.67s1-53.33-66-53.33Z"/>
    <path class="cls-6" d="m1693.65,134.9v82.28h-86.57v85.7h-87.84v73.77h-84.39v72.59h-80.85v94.67h-95.35v82.28h-86.57v85.7h-87.84v73.77h-84.39v72.59h-80.85v221.77h1001V135l-226.35-.1Zm-299.65,753.1v147h-128v-147h.16c-.1-1.49-.16-2.99-.16-4.5,0-36.73,28.65-66.5,64-66.5s64,29.77,64,66.5c0,1.51-.07,3.01-.16,4.5h.16Z"/>
    <path class="cls-5" d="m0,961.84s519.5-128.34,709.5-98.34,390,132,550,149,475,9,570-25,91-34,91-34l-.5,126.5H0v-118.16Z"/>
  </g>
</svg>