<?xml version="1.0" encoding="UTF-8"?>
<svg id="symbols" xmlns="http://www.w3.org/2000/svg" viewBox="0 0 250 250">
  <defs>
    <style>
      .cls-1 {
        fill: #6c4604;
      }

      .cls-2 {
        fill: #a46e07;
      }

      .cls-3 {
        fill: none;
        stroke: #6c4604;
        stroke-miterlimit: 10;
        stroke-width: 1.35px;
      }
    </style>
  </defs>
  <g>
    <polygon class="cls-1" points="58.06 36.33 59.63 41.15 64.69 41.15 60.59 44.13 62.16 48.96 58.06 45.98 53.96 48.96 55.52 44.13 51.42 41.15 56.49 41.15 58.06 36.33"/>
    <polygon class="cls-1" points="45.92 24.19 47.48 29.01 52.55 29.01 48.45 31.99 50.02 36.81 45.92 33.83 41.81 36.81 43.38 31.99 39.28 29.01 44.35 29.01 45.92 24.19"/>
    <polygon class="cls-1" points="75.6 39.03 77.17 43.85 82.24 43.85 78.13 46.83 79.7 51.65 75.6 48.67 71.5 51.65 73.07 46.83 68.96 43.85 74.03 43.85 75.6 39.03"/>
    <polygon class="cls-1" points="90.44 47.13 92.01 51.95 97.08 51.95 92.98 54.93 94.54 59.75 90.44 56.77 86.34 59.75 87.91 54.93 83.81 51.95 88.88 51.95 90.44 47.13"/>
    <polygon class="cls-1" points="99.89 94.35 101.45 99.17 106.52 99.17 102.42 102.15 103.99 106.97 99.89 104 95.79 106.97 97.35 102.15 93.25 99.17 98.32 99.17 99.89 94.35"/>
    <polygon class="cls-1" points="8.14 129.44 9.7 134.26 14.77 134.26 10.67 137.24 12.24 142.06 8.14 139.08 4.03 142.06 5.6 137.24 1.5 134.26 6.57 134.26 8.14 129.44"/>
    <polygon class="cls-1" points="33.77 178.01 35.34 182.83 40.41 182.83 36.31 185.81 37.87 190.63 33.77 187.65 29.67 190.63 31.24 185.81 27.14 182.83 32.21 182.83 33.77 178.01"/>
    <polygon class="cls-1" points="40.52 188.8 42.08 193.62 47.15 193.62 43.05 196.6 44.62 201.43 40.52 198.45 36.42 201.43 37.98 196.6 33.88 193.62 38.95 193.62 40.52 188.8"/>
    <polygon class="cls-1" points="64.81 234.68 66.37 239.5 71.44 239.5 67.34 242.48 68.91 247.3 64.81 244.32 60.7 247.3 62.27 242.48 58.17 239.5 63.24 239.5 64.81 234.68"/>
    <polygon class="cls-1" points="106.63 206.34 108.2 211.17 113.27 211.17 109.17 214.15 110.73 218.97 106.63 215.99 102.53 218.97 104.1 214.15 100 211.17 105.07 211.17 106.63 206.34"/>
    <polygon class="cls-1" points="125.52 237.38 127.09 242.2 132.16 242.2 128.06 245.18 129.62 250 125.52 247.02 121.42 250 122.99 245.18 118.89 242.2 123.96 242.2 125.52 237.38"/>
    <polygon class="cls-1" points="117.43 79.51 118.99 84.33 124.06 84.33 119.96 87.31 121.53 92.13 117.43 89.15 113.33 92.13 114.89 87.31 110.79 84.33 115.86 84.33 117.43 79.51"/>
    <polygon class="cls-1" points="114.73 106.5 116.3 111.32 121.37 111.32 117.26 114.3 118.83 119.12 114.73 116.14 110.63 119.12 112.2 114.3 108.09 111.32 113.16 111.32 114.73 106.5"/>
    <polygon class="cls-1" points="136.32 78.16 137.88 82.98 142.95 82.98 138.85 85.96 140.42 90.78 136.32 87.8 132.22 90.78 133.78 85.96 129.68 82.98 134.75 82.98 136.32 78.16"/>
    <polygon class="cls-1" points="164.65 55.22 166.22 60.05 171.29 60.05 167.19 63.02 168.75 67.85 164.65 64.87 160.55 67.85 162.12 63.02 158.02 60.05 163.09 60.05 164.65 55.22"/>
    <polygon class="cls-1" points="194.34 5.3 195.9 10.12 200.97 10.12 196.87 13.1 198.44 17.92 194.34 14.94 190.24 17.92 191.8 13.1 187.7 10.12 192.77 10.12 194.34 5.3"/>
    <polygon class="cls-1" points="183.54 87.61 185.11 92.43 190.18 92.43 186.08 95.41 187.64 100.23 183.54 97.25 179.44 100.23 181.01 95.41 176.91 92.43 181.98 92.43 183.54 87.61"/>
    <polygon class="cls-1" points="188.94 128.09 190.51 132.91 195.58 132.91 191.48 135.89 193.04 140.71 188.94 137.73 184.84 140.71 186.41 135.89 182.31 132.91 187.37 132.91 188.94 128.09"/>
    <polygon class="cls-1" points="206.48 145.63 208.05 150.45 213.12 150.45 209.02 153.43 210.58 158.25 206.48 155.27 202.38 158.25 203.95 153.43 199.85 150.45 204.92 150.45 206.48 145.63"/>
    <polygon class="cls-1" points="213.23 87.61 214.79 92.43 219.86 92.43 215.76 95.41 217.33 100.23 213.23 97.25 209.13 100.23 210.69 95.41 206.59 92.43 211.66 92.43 213.23 87.61"/>
    <polygon class="cls-1" points="238.86 61.97 240.43 66.79 245.5 66.79 241.4 69.77 242.97 74.59 238.86 71.61 234.76 74.59 236.33 69.77 232.23 66.79 237.3 66.79 238.86 61.97"/>
    <polyline class="cls-3" points="125.52 244.52 64.81 240.99 106.63 213.82"/>
    <polyline class="cls-3" points="64.81 239.82 40.52 195.11 33.77 184.32 8.14 136.66 41.46 98.5 99.89 100.66 114.73 112.81 136.32 84.47 117.43 85.82 100.83 99.85 90.44 53.44 75.6 45.34 58.06 42.64 45.92 30.5"/>
    <polyline class="cls-3" points="137.26 83.66 165.6 62.07 194.34 12.19"/>
    <polyline class="cls-3" points="164.65 62.05 183.54 94.28 213.23 93.92 238.86 68.28"/>
    <polyline class="cls-3" points="184.49 95.8 188.94 134.4 206.59 151.94"/>
  </g>
  <path class="cls-2" d="m233.54,74.43c-7.48,2.76-10.17.57-11.57-5.89-1.84-8.5-4.92-16.73-8.24-27.63-38.7,40.17-75.86,78.75-114.84,119.21h31.3v23.84c-14.51-11.15-30.88-4.73-46.24-5.86-2.31-.17-5.06,3.19-7.34,5.21-17.83,15.85-35.59,31.77-53.37,47.66.77,1.45,1.55,2.89,2.32,4.34-4.95-5.85-9.91-11.7-14.36-16.97,16.44-8.75,26.69-25.78,40.39-40.4H14.05v-23.41c17.87,11,37.14,4.08,55.58,5.48,1.91.14,4.34-2.26,6.02-3.98,40.25-40.97,80.43-82.01,120.58-123.07,1.21-1.23,2.01-2.86,4-5.73-13.91.74-26.22,1.4-39.31,2.1v-11.86c25.61-5.49,50.23-10.76,76.48-16.39-6.49,24.09-9.58,48.37-3.87,73.35Z"/>
</svg>