<?xml version="1.0" encoding="UTF-8"?>
<svg id="Layer_5" data-name="Layer 5" xmlns="http://www.w3.org/2000/svg" viewBox="0 0 1920 1080">
  <defs>
    <style>
      .cls-1, .cls-2, .cls-3, .cls-4, .cls-5, .cls-6, .cls-7, .cls-8 {
        fill: none;
        stroke: #6c4604;
      }

      .cls-1, .cls-2, .cls-3, .cls-8 {
        stroke-miterlimit: 10;
      }

      .cls-1, .cls-2, .cls-7 {
        stroke-width: 1.72px;
      }

      .cls-1, .cls-4, .cls-5, .cls-6, .cls-7, .cls-8 {
        stroke-linecap: round;
      }

      .cls-9 {
        fill: #f9f3df;
      }

      .cls-10 {
        fill: #6c4604;
      }

      .cls-3, .cls-6 {
        stroke-width: 2.3px;
      }

      .cls-4 {
        stroke-width: 2.87px;
      }

      .cls-4, .cls-5, .cls-6, .cls-7 {
        stroke-linejoin: round;
      }

      .cls-5 {
        stroke-width: 2.19px;
      }

      .cls-8 {
        stroke-width: 3.45px;
      }
    </style>
  </defs>
  <rect class="cls-9" width="1920" height="1080"/>
  <g>
    <path class="cls-10" d="m634.8,473.31c41.03,0,74.41,33.38,74.41,74.41s-33.38,74.41-74.41,74.41-74.41-33.38-74.41-74.41,33.38-74.41,74.41-74.41m0-2.3c-42.36,0-76.71,34.34-76.71,76.71s34.34,76.71,76.71,76.71,76.71-34.34,76.71-76.71-34.34-76.71-76.71-76.71h0Z"/>
    <path class="cls-3" d="m627.62,471.01s-6.9-13.22,2.87-24.71c0,0,4.02-5.17,1.15-12.07s-5.75-14.94,4.6-26.43c0,0-2.3,8.04,4.02,19.54,6.32,11.49,5.75,15.51,2.87,21.26s-.46,18.39,2.07,22.41c0,0,1.38-9.19,8.28-13.79s2.87-14.36,2.3-15.51,0-6.9,11.49-9.77c0,0-5.17,4.6-1.72,12.07s0,12.07-1.72,14.36-4.6,10.34-.57,17.24c0,0,1.15-9.77,12.64-16.09s12.64-10.92,12.64-16.66,0-17.81,22.41-19.54c0,0-12.07,8.04-10.92,15.51s2.3,20.69-5.17,24.71-12.64,6.9-12.64,22.41c0,0,.57-8.62,13.22-9.19,0,0,5.17-1.15,6.32-6.9s8.62-8.04,18.39-5.17c0,0-10.34,1.72-12.07,10.92s-2.87,7.47-6.32,8.62-6.9,2.3-5.17,15.51c0,0,8.62-10.13,23.56-7.36,0,0,8.62,2.19,13.79-8.15s21.26-8.62,25.86-6.9c0,0-11.49,2.87-15.51,13.79s-8.62,13.22-15.51,13.22-15.51,1.72-21.83,12.64c0,0,8.04-5.75,16.66-.57,0,0,5.75,2.87,10.34-.57s7.99-6.37,17.5,1.7c0,0-5.43-3.42-11.18,4.62s-13.22,3.45-14.36,3.45-9.19-.57-13.22,8.62c0,0,9.19-3.45,14.94,2.87s13.22,6.9,18.39,2.87,16.31-8.36,25.97,9.32c0,0-13.9-10.47-23.09-.7s-17.24,5.17-19.54,3.45-8.72-5.15-17,2.6c0,0,9.53-2.6,12.98,7.75,0,0,1.15,5.17,8.62,5.17s10.34,1.15,13.22,10.34c0,0-4.02-5.17-9.77-2.87s-9.77.57-12.64-2.3-8.62-5.75-17.24,1.15"/>
    <path class="cls-3" d="m705.25,578.24s14.91.12,20.47,14.13c0,0,2.68,5.98,10.11,6.68,7.44.7,15.89,1.94,21.18,16.47,0,0-6.02-5.81-19.14-5.62-13.11.19-16.4-2.21-20.12-7.44-3.72-5.23-16.02-9.04-20.76-8.69,0,0,7.47,5.54,8.29,13.78s11.34,9.28,12.62,9.31,6.09,3.24,3.23,14.73c0,0-1.63-6.72-9.85-7.19s-10.65-5.66-11.87-8.26-6.97-8.91-14.95-8.6c0,0,8.09,5.6,8.27,18.71.19,13.11,3.71,16.29,8.78,18.98s15.73,8.36,6.73,28.96c0,0-1.44-14.43-8.57-16.92s-19.34-7.68-19.39-16.16.1-15.15-13.6-22.43c0,0,7.09,5.3,1.66,16.74,0,0-1.41,5.11,3.12,8.82s3.06,11.39-4.06,18.66c0,0,3.33-9.94-3.98-15.78-7.31-5.84-5.25-6.04-4.64-9.63s1.21-7.17-11.27-11.85c0,0,4.9,12.37-4.56,24.26,0,0-5.98,6.58.72,16,6.7,9.42-2.37,22.82-6.05,26.07,0,0,2.86-11.5-4.89-20.17-7.75-8.68-7.62-13.81-4.39-19.9,3.24-6.09,5.76-14.51-.91-25.21,0,0,1.3,9.8-7.31,14.98,0,0-5.23,3.72-4.35,9.4s1.88,10.05-9.71,14.65c0,0,5.57-3.19,1.16-12.04-4.41-8.85,3.16-13.29,3.7-14.3s4.82-7.85-1.41-15.71c0,0-1.27,9.74-9.55,11.84-8.28,2.11-12.29,8.43-11.17,14.89,1.12,6.45-.28,18.33-20.42,18.55,0,0,15.77-7.36,11.46-20.06-4.31-12.7,3.53-17.65,6.13-18.87s8.64-5.28,5.69-16.23c0,0-2.18,9.64-12.93,7.82,0,0-5.11-1.41-8.61,5.18s-5.87,8.59-15.34,6.81c0,0,6.45-1.12,7.12-7.28s4.08-8.89,7.96-10.08,9.23-7.41,7.19-18.25"/>
    <path class="cls-3" d="m571.69,592.06s-7.98,12.59-22.82,9.9c0,0-6.49-.89-11.02,5.05-4.53,5.94-10.05,12.46-25.18,9.27,0,0,8.11-2.04,14.89-13.27,6.78-11.23,10.55-12.75,16.96-13.14s16.14-8.81,18.36-13.02c0,0-8.65,3.41-16.08-.25-7.43-3.66-13.87,4.71-14.58,5.79s-5.97,3.46-14.21-5.05c0,0,6.57,2.17,11.31-4.56,4.74-6.73,10.44-6.05,13.29-5.71s11.25-1.21,15.2-8.14c0,0-9.03,3.9-20.26-2.88s-15.78-5.47-20.75-2.59-15.41,8.93-28.14-9.6c0,0,13.01,6.41,18.9,1.67s16.75-12.35,23.97-7.91c7.22,4.45,12.3,7.48,25.73-.29,0,0-7.75,3.82-14.58-6.83,0,0-3.59-3.9-9.13-2.01s-11.28-3.43-13.69-13.32c0,0,6.67,8.09,15.49,4.97s7.9-1.26,10.63,1.15,5.44,4.81,16.02-3.3c0,0-13.09-2.38-18.18-16.7,0,0-2.42-8.56-13.96-7.85-11.54.71-18.11-14.08-18.92-18.92,0,0,8.25,8.5,19.71,6.51s15.76.84,19.21,6.8,9.27,12.56,21.88,12.56c0,0-9-4.08-8.85-14.13,0,0-.39-6.41-5.68-8.66s-9.52-3.72-7.3-15.99c0,0-.24,6.41,9.6,7.36s9.61,9.71,10.18,10.7,4.11,8.24,14.08,7.12c0,0-7.59-6.23-5-14.37s-.66-14.89-6.73-17.35-15.41-9.93-4.95-27.14c0,0-2.1,17.28,10.96,20.34,13.06,3.06,13.11,12.33,12.77,15.18s-.09,10.13,10.77,13.41c0,0-7.02-6.95.2-15.11,0,0,3.9-3.59.16-10.05s-4.19-9.53,2.33-16.62c0,0-2.46,6.07,2.41,9.89s5.39,8.16,4.35,12.09-.65,10.34,9.63,14.34"/>
    <circle class="cls-2" cx="681.34" cy="567.25" r="14.94"/>
    <circle class="cls-2" cx="587.68" cy="567.25" r="14.94"/>
    <path class="cls-8" d="m648.01,519.56s13.79-21.26,41.94-4.02"/>
    <path class="cls-8" d="m619.28,519.56s-13.79-21.26-41.94-4.02"/>
    <g>
      <path class="cls-7" d="m652.04,533.35s14.94-8.62,32.18.57c0,0-5.75,11.7-16.09,11.88-10.34.18-16.09-12.46-16.09-12.46Z"/>
      <path class="cls-10" d="m668.12,532.2c.32,0,.57.26.57.57s-.26.57-.57.57-.57-.26-.57-.57.26-.57.57-.57m0-2.3c-1.59,0-2.87,1.29-2.87,2.87s1.29,2.87,2.87,2.87,2.87-1.29,2.87-2.87-1.29-2.87-2.87-2.87h0Z"/>
      <path class="cls-1" d="m674.73,534.21c0-1.52-.52-2.93-1.38-4.05-1.2-.84-8.1-.84-10.3-.18-.96,1.15-1.53,2.62-1.53,4.23,0,3.65,2.96,6.61,6.61,6.61s6.61-2.96,6.61-6.61Z"/>
    </g>
    <g>
      <path class="cls-7" d="m614.4,533.64s-14.94-8.62-32.18.57c0,0,5.75,11.7,16.09,11.88,10.34.18,16.09-12.46,16.09-12.46Z"/>
      <path class="cls-10" d="m598.31,532.49c.32,0,.57.26.57.57s-.26.57-.57.57-.57-.26-.57-.57.26-.57.57-.57m0-2.3c-1.59,0-2.87,1.29-2.87,2.87s1.29,2.87,2.87,2.87,2.87-1.29,2.87-2.87-1.29-2.87-2.87-2.87h0Z"/>
      <path class="cls-1" d="m591.7,534.5c0-1.52.52-2.93,1.38-4.05,1.2-.84,8.1-.84,10.3-.18.96,1.15,1.53,2.62,1.53,4.23,0,3.65-2.96,6.61-6.61,6.61s-6.61-2.96-6.61-6.61Z"/>
    </g>
    <path class="cls-7" d="m650.03,580.76l-10.77-8.62-5.31,5.53-5.75-5.53-10.11,8.62-6.55-1.72s11.46,4.02,13.2,3.16,4.04-1.77,6.05.12,4.06,2.13,5.91,0,5.2-.98,6.11-.12,8.95.29,12.97-2.59"/>
    <path class="cls-1" d="m618.42,586.5s14.52,10.92,31.11,0"/>
    <path class="cls-1" d="m627.12,534.21s2.46,2.3,2.46,12.64v10.34s-.61,6.06,4.62,6.19"/>
    <path class="cls-1" d="m641.9,534.21s-2.46,2.3-2.46,12.64v10.34s.61,6.06-4.62,6.19"/>
    <path class="cls-1" d="m644.85,554.9s3.36,9.92-6.08,6.11"/>
    <path class="cls-1" d="m623.85,554.9s-3.36,9.92,6.08,6.11"/>
    <path class="cls-1" d="m642.56,524.45s1.15,4.6-1.72,6.32"/>
    <path class="cls-1" d="m626.69,524.45s-1.15,4.6,1.72,6.32"/>
    <path class="cls-1" d="m587.68,495.98s-7.6,6.36-11.41,12.82"/>
    <path class="cls-1" d="m569.01,522.15s-4.02,6.9-3.45,17.24"/>
    <path class="cls-1" d="m564.21,548.8s-.49,6.38,1.29,10.26"/>
    <path class="cls-1" d="m573.3,582.19s8.93,13.5,13.53,15.8"/>
    <path class="cls-1" d="m615.55,614.08s15.51,5.17,31.6,1.15"/>
    <path class="cls-1" d="m666.4,608.44s6.03-1.83,10.63-7.57"/>
    <path class="cls-1" d="m701.27,535.65s3.16,9.48.66,19.25"/>
    <path class="cls-1" d="m651.17,480.78s14.36,2.78,23.56,10.58"/>
    <path class="cls-1" d="m620.15,479.63s9.19-2.87,16.66-1.15"/>
  </g>
  <g>
    <path class="cls-6" d="m1277.18,572.42s1.72,4.02-2.87,9.77c-4.6,5.75,1.15,9.19,5.75,9.19s8.62,4.02,8.62,4.02"/>
    <path class="cls-6" d="m1274.31,590.81s-8.04.57-4.6,9.77c0,0,3.87,7.47,11.7,0"/>
    <path class="cls-6" d="m1269.72,602.3s-6.9,17.81-54.01,5.75c0,0-29.3-5.17-51.71-40.8,0,0,13.79,75.85,92.51,81.59,78.72,5.75,103.74-69.52,105.02-81.59,1.28-12.07,8.75-118.36-109.62-118.36,0,0,41.94,4.02,62.63,55.16,0,0,5.75,10.92-4.02,20.69,0,0-5.75,3.45-8.04,13.22-2.3,9.77-22.98,18.39-24.71,19.54s-9.19,2.87-2.3,11.49c0,0,4.02,6.9,8.62,2.87,0,0,16.09,9.19,9.77-8.04"/>
    <line class="cls-6" x1="1188.77" y1="502.83" x2="1188.77" y2="547.77"/>
    <line class="cls-6" x1="1167.34" y1="525.3" x2="1210.65" y2="525.3"/>
    <line class="cls-6" x1="1177.94" y1="514.85" x2="1199.05" y2="536.15"/>
    <line class="cls-6" x1="1178.36" y1="536.03" x2="1199.72" y2="514.97"/>
    <line class="cls-6" x1="1231.83" y1="553.74" x2="1231.83" y2="591.53"/>
    <line class="cls-6" x1="1213.82" y1="572.64" x2="1250.23" y2="572.64"/>
    <line class="cls-6" x1="1222.73" y1="563.85" x2="1240.48" y2="581.76"/>
    <line class="cls-6" x1="1223.08" y1="581.66" x2="1241.04" y2="563.95"/>
    <g>
      <path class="cls-6" d="m1243,472.73s.57,13.22-12.64,20.11c0,0,12.65,1.57,12.64,17.16"/>
      <path class="cls-6" d="m1243,473.31s-.57,13.22,12.64,20.11c0,0-12.65,1.57-12.64,17.16"/>
    </g>
    <circle class="cls-5" cx="1321.71" cy="589.95" r="11.49"/>
    <path class="cls-5" d="m1324.59,570.99s-18.39-2.87-22.41,11.49c0,0-1.72,8.62,1.72,15.51,3.45,6.9,1.44,13.12-2.15,15.47-3.59,2.35-8.15,4.93-21.1,2.49"/>
    <path class="cls-10" d="m1323.44,554.32q-2.3-2.87-5.17-5.17c-2.86,0-5.17,2.32-5.17,5.17s2.32,5.17,5.17,5.17,5.17-2.32,5.17-5.17Z"/>
    <path class="cls-6" d="m1306.2,545.71s17.81.57,26.14,22.12"/>
    <path class="cls-6" d="m1309.65,546.85s-5.75,7.47,1.72,14.36c7.47,6.9,18.63,1.5,18.63,1.5"/>
    <path class="cls-4" d="m1312.52,534.79s23.75,5.3,27.96,29.94"/>
    <path class="cls-4" d="m1316.83,476.47s12.64,8.62,17.24,17.81"/>
    <path class="cls-4" d="m1348.43,523.01s4.22,5.75,3.54,23.85"/>
    <path class="cls-4" d="m1327.17,611.5s-5.17,6.9-13.79,11.49"/>
    <path class="cls-4" d="m1250.75,637.35s25.86,4.02,40.22-4.02"/>
    <path class="cls-4" d="m1197.89,612.07s12.07,12.64,22.41,16.66"/>
  </g>
  <g>
    <line class="cls-6" x1="1043.75" y1="443.72" x2="845.67" y2="643.98"/>
    <path class="cls-6" d="m1040.09,487.35s-4.25-16.91,3.66-43.63"/>
    <path class="cls-6" d="m1002.74,526.99s-4.25-16.91,3.66-43.63"/>
    <path class="cls-6" d="m1000.07,448.47s17.03,3.76,43.5-4.92"/>
    <path class="cls-6" d="m961.52,486.95s17.03,3.76,43.5-4.92"/>
  </g>
</svg>