<?xml version="1.0" encoding="UTF-8"?>
<svg id="Layer_2" data-name="Layer 2" xmlns="http://www.w3.org/2000/svg" viewBox="0 0 1920 1080">
  <defs>
    <style>
      .cls-1 {
        fill: #f9f3df;
      }

      .cls-2 {
        fill: #825615;
      }

      .cls-3 {
        fill: #6c4604;
      }

      .cls-4 {
        fill: #bc8c64;
      }

      .cls-5 {
        fill: #a46e07;
      }
    </style>
  </defs>
  <rect class="cls-1" width="1920" height="1080"/>
  <path class="cls-4" d="m1347.47,540s-108.97-.5-132.97-61.5-29-63-46-80-84-88-89-93-18-18-47,18-47,76-62,88-52,12-63,11-28-7-57,25-77,60-118,63-104-12-220,69-151,59-172,55-45,25-67,35-146,61-198,61H0v349.5h1347.47v-540Z"/>
  <path class="cls-5" d="m933,710s23-11,39-12,24-30,42-32,48,8,70,7,111-52,155-99,180-143,243-144,78-15,87-24,25-28,96-4,67,22,99,38,63,9,72,8,42,1,61,19,23,19.14,23,19.14v593.86h-987v-370Z"/>
  <path class="cls-3" d="m1046.5,789.5s-58-29-104-84-127-67-164-77-169-17-209-11-108,59-156,65-147,19-208,46S89.5,821.83,0,816.16v263.84h1046.5v-290.5Z"/>
  <path class="cls-2" d="m1131.5,833.5s75.29-52.97,101.15-56.48c25.85-3.52,38.85-42.52,63.85-70.52s96-35,124-36,82-31,95-41,63-27,112,9,59,41,97,47,101.28,19.12,140.14,39.56c38.86,20.44,55.36,21.1,55.36,21.1v333.84h-808.48l19.98-246.5Z"/>
  <path class="cls-4" d="m1454,913s-41-33-149-52c0,0-36-10-60-34s-110-82-116-85c-8-4-32,1-98,28s-82,36-136,37-81-8-117-7-89.5,15.5-150.5,40.5-167,47-185,44-108,21-172,56-105,31-127,28-80,10.47-143.5,56.23v55.27h1465.44l-11.44-167Z"/>
  <path class="cls-3" d="m689.1,1080s116.4-56.5,207.4-62.5,125-32,140-44,58-18,85-15,99-25,118-34,54-20,102-18,80-1,111-19,55-49,138-38,126,27,161,38,96,15,110,14,58.5,10.4,58.5,10.4v168.1H689.1Z"/>
  <circle class="cls-5" cx="1410.5" cy="175.5" r="94.5"/>
</svg>